<svg width="16" height="16" viewBox="0 0 16 16" fill="none" xmlns="http://www.w3.org/2000/svg">
<path d="M6.9847 2.28173C6.9847 3.0162 7.53195 3.56346 8.25203 3.56346C8.9865 3.56346 9.53375 3.0162 9.53375 2.28173C9.53375 1.54725 8.9865 1 8.25203 1C7.53195 1 6.9847 1.54725 6.9847 2.28173ZM8.71287 4.65797L8.32403 4.51395L5.21332 4.91719L5.05491 5.33483C5.67417 5.72367 5.83258 5.83888 5.83258 6.0261C5.83258 6.19892 5.77498 6.37174 5.70297 6.57336L4.29163 10.3177C3.09631 13.5004 2.83708 14.0045 2.31863 14.0045C1.71377 14.0045 1.72817 12.838 0.936094 12.838C0.374437 12.838 0 13.198 0 13.7309C0 14.3789 0.619262 14.7678 1.52655 14.7678C3.58596 14.7678 5.25653 13.0828 6.06301 11.1098L8.71287 4.65797Z" fill="#30A46C"/>
<path d="M16 5.75247C16 5.0468 15.64 4.51395 14.9775 4.51395C14.3438 4.51395 13.9694 5.0468 13.9694 5.56526C13.9694 6.09811 14.2286 6.54455 14.2286 6.90459C14.2286 8.0279 13.2925 9.46805 12.0396 10.721H11.9964C12.198 8.87759 12.2556 6.28533 12.2556 4.65797L11.8668 4.51395L9.34654 4.91719L9.18812 5.33483C9.87939 5.73807 10.0378 5.85329 10.0522 6.12691C10.1098 6.991 10.1242 10.577 10.0522 12.3627C8.9721 13.0828 7.86319 13.5581 7.0279 13.5581C6.22142 13.5581 6.23582 12.7948 5.35734 12.7948C4.91089 12.7948 4.40684 13.126 4.40684 13.7453C4.40684 14.3501 4.93969 14.7678 5.64536 14.7678C9.93699 14.7678 16 8.86319 16 5.75247Z" fill="#30A46C"/>
</svg>
